<svg xmlns="http://www.w3.org/2000/svg" width="128" height="128" viewBox="0 0 128 128" fill="none">
  <defs>
    <linearGradient id="g" x1="16" y1="20" x2="112" y2="108" gradientUnits="userSpaceOnUse">
      <stop stop-color="#f5d39b"/>
      <stop offset="1" stop-color="#b98b55"/>
    </linearGradient>
    <filter id="glow" x="-40%" y="-40%" width="180%" height="180%">
      <feGaussianBlur stdDeviation="3" result="b"/>
      <feColorMatrix in="b" type="matrix"
        values="1 0 0 0 0
                0 0.8 0 0 0
                0 0 0.5 0 0
                0 0 0 0.6 0" result="c"/>
      <feMerge>
        <feMergeNode in="c"/>
        <feMergeNode in="SourceGraphic"/>
      </feMerge>
    </filter>
  </defs>
  <path d="M64 10L110 36V92L64 118L18 92V36L64 10Z" stroke="url(#g)" stroke-width="6" fill="rgba(0,0,0,0.0)"/>
  <g filter="url(#glow)">
    <path d="M41 44H68C78 44 84 49 84 58C84 67 78 72 68 72H53V88H41V44ZM53 62H66C70.5 62 72.8 60 72.8 58C72.8 56 70.5 54 66 54H53V62Z" fill="url(#g)"/>
    <path d="M88 46C98 46 104 51.2 104 60.2C104 68.8 98.6 73.4 89.5 75L82 76.4C78.8 77 77.5 78 77.5 79.4C77.5 81.7 80 83 84 83C88.7 83 92 81.2 92.5 77.8H104C103.1 87.8 95 93 84 93C73 93 65.2 87.4 65.2 79.7C65.2 72.8 69.8 68.8 79.2 67L87.4 65.5C91 64.8 92.2 63.9 92.2 62.2C92.2 59.8 89.8 58.5 86.2 58.5C82 58.5 79.2 60 78.7 63.2H67C67.8 53.6 75.5 46 88 46Z" fill="url(#g)"/>
  </g>
</svg>

